<?xml version="1.0" ?><svg height="1181" viewBox="0 0 1181 1181" width="1181" xmlns="http://www.w3.org/2000/svg"><defs><style>
      .cls-1 {
        fill-rule: evenodd;
      }

      .cls-2 {
        fill: none;
        stroke: #000;
        stroke-width: 5px;
      }
    </style></defs><path class="cls-1" d="M426.04,542.987S377.231,295,592.015,295c217.791,0,160.976,247.987,160.976,247.987,2.455,3.333,8.616,11.153,28,9,17.257-1.917,42.25-23.817,57.872,1,12.178,19.348-83.247,32.647-80.869,57C769.4,726.835,902.4,755.225,902.969,759.975c1.93,16.2-65.5,24.417-77.989,29-17.894,6.565-11.288,42.338-14.917,42.757,0,0-60.481-18.046-98.066-1.759s-68.489,57.592-119.982,56c-88.478-2.742-87.977-54.518-133.45-59.488-50.041-5.468-84.517,5.491-84.517,5.491-2.167-.218-0.2-43.718-16.987-43.666-22.793.072-95.815-21.017-77-31.33,16.452-9.018,132.837-40.224,141.979-146.993,2.122-24.789-84.655-36.172-77.989-58,7.3-23.885,34.542-1.975,46.993,0C409.257,554.876,425.9,548.364,426.04,542.987Z"/><rect class="cls-2" data-name="Rounded Rectangle 1" height="863" id="Rounded_Rectangle_1" rx="116" ry="116" width="863" x="159" y="159"/></svg>