<?xml version="1.0" ?><svg height="1181" viewBox="0 0 1181 1181" width="1181" xmlns="http://www.w3.org/2000/svg"><defs><style>
      .cls-1, .cls-3 {
        fill: none;
        stroke: #000;
      }

      .cls-1 {
        stroke-width: 50px;
      }

      .cls-1, .cls-2 {
        fill-rule: evenodd;
      }

      .cls-3 {
        stroke-width: 5px;
      }
    </style></defs><path class="cls-1" d="M443,860L268,917l58.145-165.658C255.267,645.5,257.552,463.426,369.87,354.577c90.224-87.438,282.16-149.909,433.21-15.648,179.137,159.227,122.231,387.938-1.174,487.307C696.956,910.744,561.362,923.051,443,860Z"/><path class="cls-2" d="M514,435c8.165,2.707,39,71,36,82s-23.975,28.207-26,38c-3.9,18.866,87.674,105.821,119,100,9.832-1.827,29-35,36-38s81.668,27.476,85,41c2.867,11.633,1.023,40.614-23,57-37.322,25.456-73.275,25.605-114,10-47.217-18.093-111.324-69.622-151.7-123.76C427.254,536.824,436.189,496.082,448,466,458.075,440.341,480.5,423.9,514,435Z"/><rect class="cls-3" data-name="Rounded Rectangle 1" height="863" id="Rounded_Rectangle_1" rx="116" ry="116" width="863" x="159" y="159"/></svg>