<?xml version="1.0" ?><svg height="1181" viewBox="0 0 1181 1181" width="1181" xmlns="http://www.w3.org/2000/svg"><defs><style>
      .cls-1 {
        fill-rule: evenodd;
      }

      .cls-2 {
        fill: none;
        stroke: #000;
        stroke-width: 5px;
      }
    </style></defs><path class="cls-1" d="M445.028,923.969c17.929,1.823,55.869-70.69,62.859-85.817C515.2,822.329,550.089,702.14,548,695c-1.551-5.294,75.14,105.43,215.41-.953,22.726-17.236,64.054-67.968,79.449-156.016,34.914-199.688-115.769-262.746-195.889-277.97C571.4,245.7,356.639,275.187,333.062,486.03c-10.921,97.67,64.4,160.393,88.973,160.978,7.429,0.177,17.388-53.3,17.388-53.3-11.789,5.945-89.065-128.928,40.459-236.819,62.828-52.335,232.506-51.941,269.054,65.145,25.466,81.582-27.072,291.08-147.086,245.337-71.944-27.422,1.876-142.948,6.129-193.344,1.407-16.672-11.921-80.053-60.925-65.93-95.355,27.482-56.9,161.833-52.041,155.917,1.438-1.751-49.21,198.17-54.983,235.967C433.812,840.7,439.5,923.407,445.028,923.969Z"/><rect class="cls-2" data-name="Rounded Rectangle 1" height="863" id="Rounded_Rectangle_1" rx="116" ry="116" width="863" x="159" y="159"/></svg>